<svg width="361" height="157" viewBox="0 0 361 157" fill="none" xmlns="http://www.w3.org/2000/svg">
<g clip-path="url(#clip0_11_66)">
<path d="M325.025 64.4831H113.62C112.722 64.4831 111.861 64.8397 111.226 65.4744C110.592 66.1092 110.235 66.97 110.235 67.8677C110.235 68.7653 110.592 69.6262 111.226 70.2609C111.861 70.8957 112.722 71.2522 113.62 71.2522H119.608V152.222C119.608 153.119 119.964 153.98 120.599 154.615C121.234 155.25 122.095 155.606 122.992 155.606C123.89 155.606 124.751 155.25 125.386 154.615C126.02 153.98 126.377 153.119 126.377 152.222L126.428 71.2522H296.103L311.747 152.222C311.747 153.119 312.104 153.98 312.739 154.615C313.373 155.25 314.234 155.606 315.132 155.606C316.03 155.606 316.891 155.25 317.525 154.615C318.16 153.98 318.517 153.119 318.517 152.222L319.501 71.2522H325.025C325.923 71.2522 326.784 70.8957 327.419 70.2609C328.053 69.6262 328.41 68.7653 328.41 67.8677C328.41 66.97 328.053 66.1092 327.419 65.4744C326.784 64.8397 325.923 64.4831 325.025 64.4831Z" fill="#CCCCCC"/>
<path d="M150.264 49.4019V63.7347H114.355C113.414 63.7674 112.476 63.6144 111.594 63.2846C110.712 62.9547 109.903 62.4543 109.215 61.812C108.526 61.1697 107.971 60.398 107.58 59.5411C107.19 58.6841 106.972 57.7587 106.94 56.8176C106.907 55.8765 107.06 54.9382 107.39 54.0562C107.72 53.1742 108.22 52.3658 108.862 51.6772C109.505 50.9886 110.276 50.4332 111.133 50.0428C111.99 49.6524 112.916 49.4347 113.857 49.4019C114.023 49.3961 114.189 49.3961 114.355 49.4019L150.264 49.4019Z" fill="#F2F2F2"/>
<path d="M151.146 63.6244C151.146 63.7706 151.088 63.9108 150.985 64.0141C150.881 64.1175 150.741 64.1756 150.595 64.1756H113.716C111.714 64.1743 109.794 63.3779 108.379 61.9618C106.964 60.5456 106.169 58.6255 106.169 56.6234C106.169 54.6213 106.964 52.7012 108.379 51.285C109.794 49.8688 111.714 49.0725 113.716 49.0711H150.595C150.667 49.071 150.739 49.0851 150.806 49.1127C150.873 49.1403 150.934 49.1809 150.986 49.2321C151.037 49.2833 151.078 49.3441 151.106 49.4111C151.133 49.4781 151.148 49.5499 151.148 49.6224C151.148 49.6949 151.133 49.7667 151.106 49.8337C151.078 49.9007 151.037 49.9615 150.986 50.0127C150.934 50.0639 150.873 50.1045 150.806 50.1321C150.739 50.1597 150.667 50.1739 150.595 50.1737H113.716C112.007 50.1762 110.369 50.8569 109.161 52.0662C107.954 53.2755 107.276 54.9145 107.276 56.6234C107.276 58.3323 107.954 59.9713 109.161 61.1806C110.369 62.3899 112.007 63.0705 113.716 63.0731H150.595C150.741 63.0732 150.881 63.1313 150.985 63.2347C151.088 63.338 151.146 63.4782 151.146 63.6244Z" fill="#2D5390"/>
<path d="M150.264 52.7095H111.676C111.647 52.7096 111.619 52.6982 111.598 52.6777C111.577 52.6573 111.565 52.6294 111.565 52.6002C111.565 52.5711 111.576 52.543 111.597 52.5221C111.617 52.5013 111.645 52.4894 111.674 52.489H150.264C150.293 52.4893 150.321 52.501 150.341 52.5216C150.362 52.5423 150.373 52.5702 150.373 52.5992C150.373 52.6283 150.362 52.6561 150.341 52.6768C150.321 52.6974 150.293 52.7092 150.264 52.7095Z" fill="#CCCCCC"/>
<path d="M150.264 55.3555H111.676C111.647 55.3557 111.619 55.3443 111.598 55.3238C111.577 55.3033 111.565 55.2755 111.565 55.2463C111.565 55.2171 111.576 55.1891 111.597 55.1682C111.617 55.1473 111.645 55.1354 111.674 55.135H150.264C150.293 55.1353 150.321 55.1471 150.341 55.1677C150.362 55.1884 150.373 55.2162 150.373 55.2453C150.373 55.2743 150.362 55.3022 150.341 55.3229C150.321 55.3435 150.293 55.3552 150.264 55.3555Z" fill="#CCCCCC"/>
<path d="M150.264 58.0016H111.676C111.647 58.0017 111.619 57.9903 111.598 57.9699C111.577 57.9494 111.565 57.9215 111.565 57.8923C111.565 57.8632 111.576 57.8351 111.597 57.8142C111.617 57.7934 111.645 57.7815 111.674 57.7811H150.264C150.293 57.7814 150.321 57.7931 150.341 57.8138C150.362 57.8344 150.373 57.8623 150.373 57.8913C150.373 57.9204 150.362 57.9483 150.341 57.9689C150.321 57.9895 150.293 58.0013 150.264 58.0016Z" fill="#CCCCCC"/>
<path d="M150.264 60.6476H111.676C111.647 60.6477 111.619 60.6363 111.598 60.6159C111.577 60.5954 111.565 60.5675 111.565 60.5384C111.565 60.5092 111.576 60.4811 111.597 60.4603C111.617 60.4394 111.645 60.4275 111.674 60.4271H150.264C150.293 60.4274 150.321 60.4391 150.341 60.4598C150.362 60.4804 150.373 60.5083 150.373 60.5373C150.373 60.5664 150.362 60.5943 150.341 60.6149C150.321 60.6356 150.293 60.6473 150.264 60.6476Z" fill="#CCCCCC"/>
<path d="M143.495 34.3015V48.6343H107.586C105.685 48.7004 103.836 48.0088 102.446 46.7116C101.055 45.4144 100.237 43.6179 100.17 41.7172C100.104 39.8166 100.796 37.9675 102.093 36.5768C103.39 35.1861 105.187 34.3677 107.087 34.3015C107.254 34.2957 107.42 34.2957 107.586 34.3015H143.495Z" fill="#F2F2F2"/>
<path d="M144.377 48.524C144.377 48.6702 144.319 48.8104 144.215 48.9138C144.112 49.0171 143.972 49.0752 143.826 49.0753H106.947C104.944 49.0753 103.023 48.2796 101.606 46.8633C100.19 45.447 99.3943 43.526 99.3943 41.523C99.3943 39.5201 100.19 37.5991 101.606 36.1828C103.023 34.7665 104.944 33.9708 106.947 33.9708H143.826C143.898 33.9708 143.97 33.9851 144.037 34.0128C144.104 34.0405 144.164 34.0811 144.216 34.1322C144.267 34.1834 144.307 34.2442 144.335 34.3111C144.363 34.378 144.377 34.4497 144.377 34.5221C144.377 34.5944 144.363 34.6661 144.335 34.733C144.307 34.7999 144.267 34.8607 144.216 34.9118C144.164 34.963 144.104 35.0036 144.037 35.0313C143.97 35.059 143.898 35.0733 143.826 35.0733H106.947C105.236 35.0733 103.595 35.7528 102.386 36.9624C101.176 38.172 100.497 39.8125 100.497 41.523C100.497 43.2336 101.176 44.8741 102.386 46.0837C103.595 47.2933 105.236 47.9728 106.947 47.9728H143.826C143.972 47.9728 144.112 48.0309 144.215 48.1343C144.319 48.2377 144.377 48.3778 144.377 48.524Z" fill="#3F3D56"/>
<path d="M143.495 37.6091H104.907C104.878 37.6092 104.85 37.5978 104.829 37.5774C104.808 37.5569 104.796 37.529 104.796 37.4998C104.796 37.4707 104.807 37.4426 104.827 37.4217C104.848 37.4009 104.876 37.389 104.905 37.3886H143.495C143.524 37.3889 143.552 37.4006 143.572 37.4213C143.593 37.4419 143.604 37.4698 143.604 37.4988C143.604 37.5279 143.593 37.5558 143.572 37.5764C143.552 37.597 143.524 37.6088 143.495 37.6091Z" fill="#CCCCCC"/>
<path d="M143.495 40.2551H104.907C104.878 40.2553 104.85 40.2439 104.829 40.2234C104.808 40.2029 104.796 40.1751 104.796 40.1459C104.796 40.1167 104.807 40.0886 104.827 40.0678C104.848 40.0469 104.876 40.035 104.905 40.0346H143.495C143.524 40.0349 143.552 40.0467 143.572 40.0673C143.593 40.088 143.604 40.1158 143.604 40.1449C143.604 40.1739 143.593 40.2018 143.572 40.2225C143.552 40.2431 143.524 40.2548 143.495 40.2551Z" fill="#CCCCCC"/>
<path d="M143.495 42.9012H104.907C104.878 42.9013 104.85 42.8899 104.829 42.8695C104.808 42.849 104.796 42.8211 104.796 42.7919C104.796 42.7628 104.807 42.7347 104.827 42.7138C104.848 42.693 104.876 42.6811 104.905 42.6807H143.495C143.524 42.681 143.552 42.6927 143.572 42.7134C143.593 42.734 143.604 42.7619 143.604 42.7909C143.604 42.82 143.593 42.8479 143.572 42.8685C143.552 42.8891 143.524 42.9009 143.495 42.9012Z" fill="#CCCCCC"/>
<path d="M143.495 45.5472H104.907C104.878 45.5474 104.85 45.536 104.829 45.5155C104.808 45.495 104.796 45.4671 104.796 45.438C104.796 45.4088 104.807 45.3807 104.827 45.3599C104.848 45.339 104.876 45.3271 104.905 45.3267H143.495C143.524 45.327 143.552 45.3387 143.572 45.3594C143.593 45.38 143.604 45.4079 143.604 45.437C143.604 45.466 143.593 45.4939 143.572 45.5145C143.552 45.5352 143.524 45.5469 143.495 45.5472Z" fill="#CCCCCC"/>
<path d="M185.268 115.201V102.704C185.268 102.151 185.048 101.621 184.658 101.231C184.267 100.84 183.737 100.621 183.185 100.621H135.801C135.249 100.621 134.719 100.84 134.328 101.231C133.938 101.621 133.718 102.151 133.718 102.704V115.201H185.268Z" fill="#CCCCCC"/>
<path d="M185.268 119.887H133.718V136.029H185.268V119.887Z" fill="#CCCCCC"/>
<path d="M133.718 140.715V153.212C133.718 153.764 133.938 154.294 134.328 154.685C134.719 155.075 135.249 155.295 135.801 155.295H183.185C183.737 155.295 184.267 155.075 184.658 154.685C185.048 154.294 185.268 153.764 185.268 153.212V140.715H133.718Z" fill="#CCCCCC"/>
<path d="M159.233 109.993C160.095 109.993 160.795 109.294 160.795 108.431C160.795 107.569 160.095 106.869 159.233 106.869C158.37 106.869 157.671 107.569 157.671 108.431C157.671 109.294 158.37 109.993 159.233 109.993Z" fill="white"/>
<path d="M159.233 130.822C160.095 130.822 160.795 130.122 160.795 129.26C160.795 128.397 160.095 127.697 159.233 127.697C158.37 127.697 157.671 128.397 157.671 129.26C157.671 130.122 158.37 130.822 159.233 130.822Z" fill="white"/>
<path d="M159.316 151.209C160.179 151.209 160.879 150.509 160.879 149.647C160.879 148.784 160.179 148.085 159.316 148.085C158.454 148.085 157.754 148.784 157.754 149.647C157.754 150.509 158.454 151.209 159.316 151.209Z" fill="white"/>
<path d="M179.424 86.3719V100.705H143.515C141.615 100.769 139.767 100.077 138.377 98.7802C136.988 97.4831 136.17 95.6874 136.104 93.7876C136.038 91.8879 136.729 90.0396 138.025 88.649C139.321 87.2584 141.116 86.4394 143.016 86.3719C143.182 86.3661 143.348 86.3661 143.515 86.3719H179.424Z" fill="#F2F2F2"/>
<path d="M180.306 100.594C180.305 100.741 180.247 100.881 180.144 100.984C180.041 101.087 179.9 101.146 179.754 101.146H142.875C140.873 101.146 138.952 100.351 137.535 98.9359C136.119 97.5205 135.322 95.6004 135.321 93.5979C135.32 91.5954 136.114 89.6744 137.529 88.2573C138.944 86.8402 140.863 86.043 142.866 86.0411H179.754C179.827 86.0409 179.899 86.055 179.966 86.0826C180.033 86.1103 180.094 86.1508 180.145 86.202C180.196 86.2533 180.237 86.3141 180.265 86.3811C180.293 86.4481 180.307 86.5198 180.307 86.5924C180.307 86.6649 180.293 86.7367 180.265 86.8036C180.237 86.8706 180.196 86.9315 180.145 86.9827C180.094 87.0339 180.033 87.0744 179.966 87.1021C179.899 87.1297 179.827 87.1438 179.754 87.1436H142.875C141.166 87.1459 139.528 87.8264 138.32 89.0357C137.112 90.245 136.434 91.8842 136.434 93.5933C136.434 95.3025 137.112 96.9417 138.32 98.151C139.528 99.3603 141.166 100.041 142.875 100.043H179.754C179.9 100.043 180.041 100.101 180.144 100.205C180.247 100.308 180.305 100.448 180.306 100.594Z" fill="#3F3D56"/>
<path d="M179.423 89.6794H140.835C140.806 89.6796 140.778 89.6681 140.757 89.6477C140.737 89.6272 140.725 89.5993 140.725 89.5702C140.724 89.541 140.736 89.5129 140.756 89.4921C140.776 89.4712 140.804 89.4593 140.833 89.4589H179.424C179.453 89.4592 179.48 89.4709 179.501 89.4916C179.521 89.5122 179.533 89.5401 179.533 89.5692C179.533 89.5982 179.521 89.6261 179.501 89.6467C179.48 89.6674 179.453 89.6791 179.423 89.6794Z" fill="#CCCCCC"/>
<path d="M179.423 92.3255H140.835C140.806 92.3256 140.778 92.3142 140.757 92.2938C140.737 92.2733 140.725 92.2454 140.725 92.2163C140.724 92.1871 140.736 92.159 140.756 92.1381C140.776 92.1173 140.804 92.1054 140.833 92.105H179.424C179.453 92.1053 179.48 92.117 179.501 92.1377C179.521 92.1583 179.533 92.1862 179.533 92.2152C179.533 92.2443 179.521 92.2722 179.501 92.2928C179.48 92.3135 179.453 92.3252 179.423 92.3255Z" fill="#CCCCCC"/>
<path d="M179.423 94.9715H140.835C140.806 94.9717 140.778 94.9603 140.757 94.9398C140.737 94.9193 140.725 94.8915 140.725 94.8623C140.724 94.8331 140.736 94.805 140.756 94.7842C140.776 94.7633 140.804 94.7514 140.833 94.751H179.424C179.453 94.7513 179.48 94.7631 179.501 94.7837C179.521 94.8043 179.533 94.8322 179.533 94.8613C179.533 94.8903 179.521 94.9182 179.501 94.9388C179.48 94.9595 179.453 94.9712 179.423 94.9715Z" fill="#CCCCCC"/>
<path d="M179.423 97.6175H140.835C140.806 97.6177 140.778 97.6063 140.757 97.5858C140.737 97.5653 140.725 97.5375 140.725 97.5083C140.724 97.4791 140.736 97.451 140.756 97.4302C140.776 97.4093 140.804 97.3974 140.833 97.397H179.424C179.453 97.3973 179.48 97.4091 179.501 97.4297C179.521 97.4504 179.533 97.4782 179.533 97.5073C179.533 97.5363 179.521 97.5642 179.501 97.5849C179.48 97.6055 179.453 97.6172 179.423 97.6175Z" fill="#CCCCCC"/>
<path d="M137.25 29.5202H120.89C120.735 29.52 120.582 29.5557 120.442 29.6243L116.313 31.6915C116.177 31.7493 116.061 31.8457 115.98 31.9689C115.898 32.092 115.855 32.2364 115.855 32.384C115.855 32.5317 115.898 32.6761 115.98 32.7992C116.061 32.9223 116.177 33.0188 116.313 33.0766L120.442 35.1437C120.582 35.2124 120.735 35.248 120.89 35.2479H137.25C137.476 35.2609 137.697 35.1846 137.867 35.0355C138.037 34.8864 138.141 34.6765 138.157 34.4512V30.3168C138.141 30.0916 138.037 29.8816 137.867 29.7325C137.697 29.5834 137.476 29.5071 137.25 29.5202Z" fill="#3F3D56"/>
<path d="M138.157 30.3169V34.4512C138.141 34.6765 138.037 34.8864 137.867 35.0355C137.697 35.1847 137.476 35.261 137.25 35.2479H133.991V29.5202H137.25C137.476 29.5071 137.697 29.5834 137.867 29.7325C138.037 29.8817 138.141 30.0916 138.157 30.3169Z" fill="#2D5390"/>
<path d="M39.1643 110.531C41.271 111.272 43.5328 111.457 45.732 111.07C47.9311 110.683 49.9934 109.735 51.7203 108.32C56.118 104.628 57.4969 98.5473 58.6188 92.9165C59.7249 87.3648 60.831 81.8132 61.9371 76.2615L54.9898 81.0452C49.9936 84.4854 44.8849 88.0357 41.4256 93.0186C37.9664 98.0015 36.4564 104.804 39.2358 110.195" fill="#E6E6E6"/>
<path d="M39.7582 130.696C39.0551 125.574 38.332 120.386 38.8252 115.209C39.2633 110.612 40.6659 106.121 43.5215 102.439C45.0373 100.489 46.8817 98.8173 48.9718 97.5005C49.5168 97.1565 50.0184 98.0202 49.4758 98.3627C45.8593 100.648 43.0621 104.023 41.4875 108.001C39.7483 112.425 39.469 117.247 39.7687 121.946C39.95 124.788 40.3341 127.611 40.7212 130.43C40.7517 130.558 40.7326 130.692 40.6679 130.806C40.6032 130.92 40.4976 131.005 40.3724 131.044C40.2448 131.079 40.1087 131.061 39.9937 130.996C39.8787 130.931 39.7941 130.823 39.7582 130.696Z" fill="#F2F2F2"/>
<path d="M46.531 121.632C47.4345 123.006 48.6764 124.123 50.1371 124.877C51.5978 125.631 53.2281 125.996 54.8708 125.937C59.0925 125.736 62.6121 122.79 65.7804 119.992L75.1515 111.718L68.9493 111.422C64.4891 111.208 59.9139 111.009 55.6657 112.384C51.4175 113.76 47.4995 117.07 46.7227 121.467" fill="#E6E6E6"/>
<path d="M37.771 133.64C41.1554 127.651 45.0811 120.996 52.0956 118.869C54.046 118.279 56.0911 118.068 58.1207 118.246C58.7604 118.302 58.6007 119.288 57.9622 119.233C54.56 118.95 51.1644 119.849 48.347 121.776C45.6358 123.622 43.5249 126.187 41.7383 128.908C40.6439 130.575 39.6636 132.312 38.6832 134.047C38.3698 134.601 37.454 134.201 37.771 133.64Z" fill="#F2F2F2"/>
<path d="M32.3481 139.943C32.4622 138.622 32.9366 137.357 33.7197 136.287C34.5028 135.217 35.5646 134.382 36.7894 133.873V130.411H42.5961V133.982C43.7607 134.516 44.7629 135.349 45.5007 136.396C46.2384 137.443 46.6852 138.667 46.7956 139.943L48.161 155.815H30.9827L32.3481 139.943Z" fill="#F2F2F2"/>
<path d="M229.824 64.1577L228.097 63.4304L226.912 54.7709H211.132L209.847 63.395L208.302 64.1677C208.228 64.2047 208.169 64.2655 208.134 64.3404C208.099 64.4153 208.09 64.4998 208.109 64.5803C208.128 64.6607 208.173 64.7324 208.238 64.7837C208.303 64.835 208.383 64.8629 208.466 64.8629H229.682C229.767 64.8629 229.849 64.8336 229.914 64.78C229.98 64.7263 230.025 64.6516 230.042 64.5686C230.059 64.4855 230.046 64.3992 230.006 64.3243C229.967 64.2495 229.903 64.1906 229.824 64.1577Z" fill="#E6E6E6"/>
<path d="M257.867 55.923H180.35C179.943 55.9221 179.553 55.7599 179.266 55.472C178.979 55.1841 178.818 54.794 178.818 54.3873V43.4563H259.399V54.3873C259.399 54.794 259.238 55.1841 258.951 55.472C258.664 55.7599 258.274 55.9221 257.867 55.923Z" fill="#CCCCCC"/>
<path d="M259.48 48.6225H178.747V1.85132C178.747 1.36048 178.943 0.889913 179.29 0.542844C179.637 0.195775 180.107 0.000549216 180.598 0H257.629C258.12 0.000549206 258.59 0.195776 258.938 0.542844C259.285 0.889912 259.48 1.36048 259.48 1.85132L259.48 48.6225Z" fill="#3F3D56"/>
<path d="M254.659 45.2279H183.569C183.19 45.2274 182.828 45.0769 182.56 44.8094C182.292 44.5418 182.142 44.179 182.141 43.8006V4.82189C182.142 4.44348 182.292 4.08068 182.56 3.8131C182.828 3.54551 183.19 3.395 183.569 3.39456H254.659C255.037 3.395 255.4 3.54551 255.667 3.8131C255.935 4.08068 256.085 4.44348 256.086 4.82189V43.8006C256.085 44.179 255.935 44.5418 255.667 44.8094C255.4 45.0769 255.037 45.2274 254.659 45.2279Z" fill="white"/>
<path d="M235.935 58.9815C236.394 58.5576 236.94 58.2394 237.535 58.0494C238.13 57.8595 238.76 57.8024 239.38 57.8821C239.999 57.9618 240.594 58.1764 241.122 58.5108C241.65 58.8452 242.098 59.2913 242.435 59.8176L252.05 58.108L254.514 63.6981L240.901 65.9216C239.98 66.4287 238.904 66.5801 237.878 66.3472C236.852 66.1142 235.947 65.513 235.335 64.6575C234.723 63.8021 234.446 62.7518 234.556 61.7056C234.667 60.6595 235.157 59.6902 235.935 58.9815Z" fill="#FFB6B6"/>
<path d="M244.837 66.1192L254.862 65.9942L256.131 65.977L276.526 65.7201C276.526 65.7201 282.065 60.4362 286.887 54.9961L286.212 50.1069C285.552 45.3086 283.172 40.9133 279.514 37.739C272.607 42.3544 268.601 51.49 268.601 51.49L255.955 54.5147L254.69 54.8172L246.832 56.6949L244.837 66.1192Z" fill="#2D5390"/>
<path d="M296.154 96.1703H277.442C277.442 96.9721 256.987 97.6228 256.987 97.6228C256.536 97.9626 256.125 98.3524 255.761 98.7848C254.669 100.087 254.073 101.733 254.076 103.433V104.595C254.077 106.521 254.842 108.368 256.204 109.729C257.566 111.091 259.413 111.857 261.339 111.857H296.154C298.08 111.856 299.926 111.09 301.288 109.728C302.649 108.367 303.415 106.52 303.417 104.595V103.433C303.414 101.508 302.648 99.6618 301.287 98.3004C299.925 96.939 298.08 96.173 296.154 96.1703Z" fill="#E4E4E4"/>
<path d="M282.547 111.569H274.994V155.165H282.547V111.569Z" fill="#E4E4E4"/>
<path d="M253.497 154.9C253.497 155.716 264.942 155.215 279.061 155.215C293.18 155.215 304.625 155.716 304.625 154.9C304.625 154.084 293.18 147.612 279.061 147.612C264.942 147.612 253.497 154.084 253.497 154.9Z" fill="#E4E4E4"/>
<path d="M248.423 149.918L242.802 149.918L240.128 128.236L248.424 128.236L248.423 149.918Z" fill="#FFB6B6"/>
<path d="M249.857 155.367L231.732 155.367V155.137C231.732 153.266 232.475 151.472 233.798 150.149C235.121 148.826 236.915 148.083 238.786 148.083H238.787L249.857 148.083L249.857 155.367Z" fill="#2F2E41"/>
<path d="M231.809 149.918L226.188 149.918L223.514 128.236L231.81 128.236L231.809 149.918Z" fill="#FFB6B6"/>
<path d="M233.243 155.367L215.117 155.367V155.137C215.118 153.266 215.861 151.472 217.184 150.149C218.507 148.826 220.301 148.083 222.172 148.083H222.173L233.243 148.083L233.243 155.367Z" fill="#2F2E41"/>
<path d="M282.163 25.0931C287.561 25.0931 291.937 20.7172 291.937 15.3193C291.937 9.9214 287.561 5.54553 282.163 5.54553C276.765 5.54553 272.389 9.9214 272.389 15.3193C272.389 20.7172 276.765 25.0931 282.163 25.0931Z" fill="#FFB6B6"/>
<path d="M297.982 82.2855C297.982 82.2855 301.261 99.6264 288.783 101.835C276.306 104.043 258.294 105.595 258.294 105.595L250.206 143.333L239.339 142.362C239.339 142.362 240.784 96.9347 244.338 93.3806C247.892 89.8265 270.356 79.1847 270.356 79.1847L297.982 82.2855Z" fill="#2F2E41"/>
<path d="M273.612 75.0178L268.155 80.4923C268.155 80.4923 228.751 86.8392 227.231 95.9401C224.936 109.68 222.226 139.559 222.226 139.559L234.073 138.671L238.718 104.706L257.674 100.395L279.239 88.6418L273.612 75.0178Z" fill="#2F2E41"/>
<path d="M291.568 9.48511C290.603 7.66475 289.377 4.03681 287.43 3.36396C286.349 3.00537 285.231 2.76726 284.097 2.65395L280.787 3.92703L282.589 2.52595C282.238 2.50505 281.887 2.48797 281.537 2.4747L279.304 3.33365L280.446 2.44498C278.364 2.42361 276.215 2.6401 274.602 3.90759C273.226 4.98812 271.864 9.08141 271.643 10.8165C271.408 12.4763 271.49 14.1658 271.886 15.7948L272.452 16.3326C272.65 15.879 272.799 15.4054 272.896 14.9202C273.098 14.0134 273.488 13.1589 274.039 12.4109C274.59 11.663 275.291 11.0382 276.098 10.5762L276.128 10.5588C277.077 10.025 278.228 10.0496 279.316 10.0887L284.482 10.2746C285.725 10.3194 287.064 10.398 288.033 11.1777C288.649 11.7529 289.133 12.4544 289.452 13.2342C289.934 14.206 290.875 17.8717 290.875 17.8717C290.875 17.8717 291.407 17.1797 291.662 17.6947C292.071 16.3511 292.32 14.9637 292.403 13.5616C292.485 12.1532 292.197 10.748 291.568 9.48511Z" fill="#2F2E41"/>
<path d="M325.752 19.6115C325.129 19.6525 324.522 19.8298 323.975 20.1308C323.427 20.4317 322.952 20.8491 322.583 21.3535C322.214 21.8578 321.961 22.4369 321.84 23.05C321.719 23.663 321.734 24.295 321.884 24.9016L314.025 30.6992L316.383 36.3347L327.367 27.9915C328.369 27.6721 329.22 26.9962 329.757 26.0917C330.294 25.1873 330.481 24.1172 330.282 23.0843C330.083 22.0513 329.512 21.1273 328.677 20.4872C327.842 19.8472 326.802 19.5356 325.752 19.6115Z" fill="#FFB6B6"/>
<path d="M324.487 31.4474L304.784 53.33C304.784 53.33 295.362 50.3136 288.075 47.0434L284.801 36.9885C284.041 34.656 283.716 32.2034 283.844 29.7534C293.946 27.0652 305.696 37.0674 305.696 37.0674L320.445 25.5147L324.487 31.4474Z" fill="#2D5390"/>
<path d="M278.512 83.9017C274.997 82.6874 271.362 81.4319 267.441 80.9605L267.273 80.9401L267.32 80.7772C271.378 66.5268 270.365 57.411 268.376 43.7178C267.953 40.7642 268.497 37.753 269.926 35.1336C271.355 32.5143 273.592 30.4272 276.305 29.184L276.329 29.1731L287.526 28.4616L287.552 28.46L295.696 30.8552C296.867 31.2023 297.893 31.924 298.615 32.9096C299.337 33.8952 299.716 35.0904 299.694 36.3121C299.606 40.8153 299.793 45.8431 299.991 51.1659C300.436 63.1075 300.895 75.4556 298.288 83.4674L298.274 83.5094L298.239 83.5367C295.842 85.4891 292.839 86.5441 289.747 86.5197C286.092 86.5197 282.361 85.2312 278.512 83.9017Z" fill="#2D5390"/>
<path d="M359.806 156.311H0.520704C0.382605 156.311 0.250164 156.257 0.152513 156.159C0.0548622 156.061 0 155.929 0 155.791C0 155.653 0.0548622 155.52 0.152513 155.423C0.250164 155.325 0.382605 155.27 0.520704 155.27H359.806C359.944 155.27 360.077 155.325 360.174 155.423C360.272 155.52 360.327 155.653 360.327 155.791C360.327 155.929 360.272 156.061 360.174 156.159C360.077 156.257 359.944 156.311 359.806 156.311Z" fill="#CCCCCC"/>
</g>
<defs>
<clipPath id="clip0_11_66">
<rect width="360.327" height="156.311" fill="white"/>
</clipPath>
</defs>
</svg>
